<svg width="22" height="31" xmlns="http://www.w3.org/2000/svg"><path d="M11 0C4.929 0 0 4.786 0 11.143v18.214c0 .286.143.5.286.714l.143.143s.071 0 .071.072a.811.811 0 0 0 .571.214h.358c2.642-.214 4.642-2.429 4.642-5.071V11.07A4.938 4.938 0 0 1 11 6.143a4.938 4.938 0 0 1 4.929 4.928 4.99 4.99 0 0 1-1.286 3l-.143.143C13.714 15 13 15.43 12 15.43c-.143 0-.214-.072-.286-.143-.143-.143-.071-.286-.071-.286v-1.429c0-.071 0-.142-.072-.214a.345.345 0 0 0-.5 0l-3.785 3.786c-.215.214-.286.5-.286.786 0 .285.071.5.286.714L11 22.714l.071.072c.072.071.143.071.215.071.214 0 .357-.143.357-.357V21c0-.286.286-.429.428-.429h.143c6.215 0 9.572-3.928 9.786-9.428C22 5 17.214 0 11 0" fill="#1fa637" fill-rule="evenodd"/></svg>